<?xml version="1.0" encoding="UTF-8" standalone="no"?>
<!DOCTYPE svg PUBLIC "-//W3C//DTD SVG 1.1//EN"
 "http://www.w3.org/Graphics/SVG/1.1/DTD/svg11.dtd">
<!-- Generated by graphviz version 2.40.1 (20161225.0304)
 -->
<!-- Title: models_diagram Pages: 1 -->
<svg width="656pt" height="489pt"
 viewBox="0.00 0.00 656.00 489.00" xmlns="http://www.w3.org/2000/svg" xmlns:xlink="http://www.w3.org/1999/xlink">
<g id="graph0" class="graph" transform="scale(1 1) rotate(0) translate(36 453)">
<title>models_diagram</title>
<polygon fill="#ffffff" stroke="transparent" points="-36,36 -36,-453 620,-453 620,36 -36,36"/>
<!-- cart -->
<g id="node1" class="node">
<title>cart</title>
<polygon fill="#add8e6" stroke="transparent" points="240,-391 240,-413 344,-413 344,-391 240,-391"/>
<polygon fill="none" stroke="#000000" points="240,-391 240,-413 344,-413 344,-391 240,-391"/>
<text text-anchor="start" x="284.507" y="-400" font-family="Times,serif" font-weight="bold" font-size="10.00" fill="#000000">cart</text>
<polygon fill="none" stroke="#000000" points="240,-369 240,-391 344,-391 344,-369 240,-369"/>
<text text-anchor="start" x="245" y="-378" font-family="Times,serif" text-decoration="underline" font-size="10.00" fill="#000000">id</text>
<text text-anchor="start" x="252.779" y="-378" font-family="Times,serif" font-size="10.00" fill="#000000">: NUMBER</text>
<polygon fill="none" stroke="#000000" points="240,-347 240,-369 344,-369 344,-347 240,-347"/>
<text text-anchor="start" x="245" y="-355" font-family="Times,serif" font-size="10.00" fill="#000000">created_at: DATE</text>
<polygon fill="none" stroke="#000000" points="240,-325 240,-347 344,-347 344,-325 240,-325"/>
<text text-anchor="start" x="245" y="-333" font-family="Times,serif" font-size="10.00" fill="#000000">updated_at: DATE</text>
<polygon fill="none" stroke="#000000" points="240,-303 240,-325 344,-325 344,-303 240,-303"/>
<text text-anchor="start" x="245" y="-311" font-family="Times,serif" font-size="10.00" fill="#000000">payed: BOOLEAN</text>
<polygon fill="none" stroke="#000000" points="240,-281 240,-303 344,-303 344,-281 240,-281"/>
<text text-anchor="start" x="244.652" y="-289" font-family="Times,serif" font-size="10.00" fill="#000000">completed: BOOLEAN</text>
<polygon fill="none" stroke="#000000" points="240,-259 240,-281 344,-281 344,-259 240,-259"/>
<text text-anchor="start" x="245" y="-268" font-family="Times,serif" font-style="italic" text-decoration="underline" font-size="10.00" fill="#000000">userId</text>
<text text-anchor="start" x="269.986" y="-268" font-family="Times,serif" font-size="10.00" fill="#000000">: NUMBER</text>
</g>
<!-- cartItem -->
<g id="node2" class="node">
<title>cartItem</title>
<polygon fill="#add8e6" stroke="transparent" points="488,-249 488,-271 584,-271 584,-249 488,-249"/>
<polygon fill="none" stroke="#000000" points="488,-249 488,-271 584,-271 584,-249 488,-249"/>
<text text-anchor="start" x="519.344" y="-258" font-family="Times,serif" font-weight="bold" font-size="10.00" fill="#000000">cartItem</text>
<polygon fill="none" stroke="#000000" points="488,-227 488,-249 584,-249 584,-227 488,-227"/>
<text text-anchor="start" x="493" y="-236" font-family="Times,serif" text-decoration="underline" font-size="10.00" fill="#000000">id</text>
<text text-anchor="start" x="500.779" y="-236" font-family="Times,serif" font-size="10.00" fill="#000000">: NUMBER</text>
<polygon fill="none" stroke="#000000" points="488,-205 488,-227 584,-227 584,-205 488,-205"/>
<text text-anchor="start" x="493" y="-213" font-family="Times,serif" font-size="10.00" fill="#000000">created_at: DATE</text>
<polygon fill="none" stroke="#000000" points="488,-183 488,-205 584,-205 584,-183 488,-183"/>
<text text-anchor="start" x="493" y="-191" font-family="Times,serif" font-size="10.00" fill="#000000">updated_at: DATE</text>
<polygon fill="none" stroke="#000000" points="488,-161 488,-183 584,-183 584,-161 488,-161"/>
<text text-anchor="start" x="493" y="-169" font-family="Times,serif" font-size="10.00" fill="#000000">quantity: NUMBER</text>
<polygon fill="none" stroke="#000000" points="488,-139 488,-161 584,-161 584,-139 488,-139"/>
<text text-anchor="start" x="493" y="-148" font-family="Times,serif" font-style="italic" text-decoration="underline" font-size="10.00" fill="#000000">cartId</text>
<text text-anchor="start" x="516.315" y="-148" font-family="Times,serif" font-size="10.00" fill="#000000">: NUMBER</text>
<polygon fill="none" stroke="#000000" points="488,-117 488,-139 584,-139 584,-117 488,-117"/>
<text text-anchor="start" x="492.5355" y="-126" font-family="Times,serif" font-style="italic" text-decoration="underline" font-size="10.00" fill="#000000">productId</text>
<text text-anchor="start" x="531.4115" y="-126" font-family="Times,serif" font-size="10.00" fill="#000000">: NUMBER</text>
</g>
<!-- cart&#45;&gt;cartItem -->
<g id="edge1" class="edge">
<title>cart&#45;&gt;cartItem</title>
<path fill="none" stroke="#000000" stroke-width=".75" d="M344.0448,-305.7116C384.8479,-281.9656 441.419,-249.043 482.5728,-225.0929"/>
<polygon fill="#000000" stroke="#000000" stroke-width=".75" points="482.5804,-225.0885 489.1242,-224.4041 485.1732,-223.5795 487.7661,-222.0705 487.7661,-222.0705 487.7661,-222.0705 485.1732,-223.5795 486.408,-219.7369 482.5804,-225.0885 482.5804,-225.0885"/>
</g>
<!-- user -->
<g id="node4" class="node">
<title>user</title>
<polygon fill="#add8e6" stroke="transparent" points="492,-395 492,-417 581,-417 581,-395 492,-395"/>
<polygon fill="none" stroke="#000000" points="492,-395 492,-417 581,-417 581,-395 492,-395"/>
<text text-anchor="start" x="528.1715" y="-404" font-family="Times,serif" font-weight="bold" font-size="10.00" fill="#000000">user</text>
<polygon fill="none" stroke="#000000" points="492,-373 492,-395 581,-395 581,-373 492,-373"/>
<text text-anchor="start" x="497" y="-382" font-family="Times,serif" text-decoration="underline" font-size="10.00" fill="#000000">id</text>
<text text-anchor="start" x="504.779" y="-382" font-family="Times,serif" font-size="10.00" fill="#000000">: NUMBER</text>
<polygon fill="none" stroke="#000000" points="492,-351 492,-373 581,-373 581,-351 492,-351"/>
<text text-anchor="start" x="496.6515" y="-359" font-family="Times,serif" font-size="10.00" fill="#000000">username: STRING</text>
<polygon fill="none" stroke="#000000" points="492,-329 492,-351 581,-351 581,-329 492,-329"/>
<text text-anchor="start" x="497" y="-337" font-family="Times,serif" font-size="10.00" fill="#000000">createdAt: DATE</text>
<polygon fill="none" stroke="#000000" points="492,-307 492,-329 581,-329 581,-307 492,-307"/>
<text text-anchor="start" x="497" y="-315" font-family="Times,serif" font-size="10.00" fill="#000000">updatedAt: DATE</text>
</g>
<!-- cart&#45;&gt;user -->
<g id="edge3" class="edge">
<title>cart&#45;&gt;user</title>
<path fill="none" stroke="#000000" stroke-width=".75" d="M350.0552,-342.1862C393.3803,-346.8028 451.7037,-353.0176 491.4013,-357.2477"/>
<polygon fill="#000000" stroke="#000000" stroke-width=".75" points="350.0111,-342.1816 344.331,-338.861 347.028,-341.8637 344.0448,-341.5458 344.0448,-341.5458 344.0448,-341.5458 347.028,-341.8637 343.7587,-344.2306 350.0111,-342.1816 350.0111,-342.1816"/>
</g>
<!-- product -->
<g id="node3" class="node">
<title>product</title>
<polygon fill="#add8e6" stroke="transparent" points="242,-176 242,-198 342,-198 342,-176 242,-176"/>
<polygon fill="none" stroke="#000000" points="242,-176 242,-198 342,-198 342,-176 242,-176"/>
<text text-anchor="start" x="276.7265" y="-185" font-family="Times,serif" font-weight="bold" font-size="10.00" fill="#000000">product</text>
<polygon fill="none" stroke="#000000" points="242,-154 242,-176 342,-176 342,-154 242,-154"/>
<text text-anchor="start" x="247" y="-163" font-family="Times,serif" text-decoration="underline" font-size="10.00" fill="#000000">id</text>
<text text-anchor="start" x="254.779" y="-163" font-family="Times,serif" font-size="10.00" fill="#000000">: NUMBER</text>
<polygon fill="none" stroke="#000000" points="242,-132 242,-154 342,-154 342,-132 242,-132"/>
<text text-anchor="start" x="247" y="-140" font-family="Times,serif" font-size="10.00" fill="#000000">created_at: DATE</text>
<polygon fill="none" stroke="#000000" points="242,-110 242,-132 342,-132 342,-110 242,-110"/>
<text text-anchor="start" x="247" y="-118" font-family="Times,serif" font-size="10.00" fill="#000000">updated_at: DATE</text>
<polygon fill="none" stroke="#000000" points="242,-88 242,-110 342,-110 342,-88 242,-88"/>
<text text-anchor="start" x="247" y="-96" font-family="Times,serif" font-size="10.00" fill="#000000">title: STRING</text>
<polygon fill="none" stroke="#000000" points="242,-66 242,-88 342,-88 342,-66 242,-66"/>
<text text-anchor="start" x="247" y="-74" font-family="Times,serif" font-size="10.00" fill="#000000">description: TEXT</text>
<polygon fill="none" stroke="#000000" points="242,-44 242,-66 342,-66 342,-44 242,-44"/>
<text text-anchor="start" x="247" y="-52" font-family="Times,serif" font-size="10.00" fill="#000000">price: NUMBER</text>
<polygon fill="none" stroke="#000000" points="242,-22 242,-44 342,-44 342,-22 242,-22"/>
<text text-anchor="start" x="247" y="-30" font-family="Times,serif" font-size="10.00" fill="#000000">imageUrl: STRING</text>
<polygon fill="none" stroke="#000000" points="242,0 242,-22 342,-22 342,0 242,0"/>
<text text-anchor="start" x="246.5965" y="-9" font-family="Times,serif" font-style="italic" text-decoration="underline" font-size="10.00" fill="#000000">categoryId</text>
<text text-anchor="start" x="289.3505" y="-9" font-family="Times,serif" font-size="10.00" fill="#000000">: NUMBER</text>
</g>
<!-- product&#45;&gt;cartItem -->
<g id="edge2" class="edge">
<title>product&#45;&gt;cartItem</title>
<path fill="none" stroke="#000000" stroke-width=".75" d="M342.2611,-118.5689C383.0327,-134.4431 440.3832,-156.7721 482.1015,-173.0149"/>
<polygon fill="#000000" stroke="#000000" stroke-width=".75" points="482.2899,-173.0882 486.9015,-177.7812 485.0855,-174.1767 487.8811,-175.2652 487.8811,-175.2652 487.8811,-175.2652 485.0855,-174.1767 488.8607,-172.7491 482.2899,-173.0882 482.2899,-173.0882"/>
</g>
<!-- category -->
<g id="node6" class="node">
<title>category</title>
<polygon fill="#add8e6" stroke="transparent" points="500,-59 500,-81 573,-81 573,-59 500,-59"/>
<polygon fill="none" stroke="#000000" points="500,-59 500,-81 573,-81 573,-59 500,-59"/>
<text text-anchor="start" x="519.2875" y="-68" font-family="Times,serif" font-weight="bold" font-size="10.00" fill="#000000">category</text>
<polygon fill="none" stroke="#000000" points="500,-37 500,-59 573,-59 573,-37 500,-37"/>
<text text-anchor="start" x="505" y="-46" font-family="Times,serif" text-decoration="underline" font-size="10.00" fill="#000000">id</text>
<text text-anchor="start" x="512.779" y="-46" font-family="Times,serif" font-size="10.00" fill="#000000">: NUMBER</text>
<polygon fill="none" stroke="#000000" points="500,-15 500,-37 573,-37 573,-15 500,-15"/>
<text text-anchor="start" x="504.98" y="-23" font-family="Times,serif" font-size="10.00" fill="#000000">name: STRING</text>
</g>
<!-- product&#45;&gt;category -->
<g id="edge4" class="edge">
<title>product&#45;&gt;category</title>
<path fill="none" stroke="#000000" stroke-width=".75" d="M348.4023,-87.211C394.835,-77.5058 459.31,-64.0295 499.3031,-55.6702"/>
<polygon fill="#000000" stroke="#000000" stroke-width=".75" points="348.1342,-87.267 341.7087,-85.8517 345.1976,-87.8808 342.2611,-88.4946 342.2611,-88.4946 342.2611,-88.4946 345.1976,-87.8808 342.8135,-91.1375 348.1342,-87.267 348.1342,-87.267"/>
</g>
<!-- rating -->
<g id="node5" class="node">
<title>rating</title>
<polygon fill="#add8e6" stroke="transparent" points="0,-143 0,-165 96,-165 96,-143 0,-143"/>
<polygon fill="none" stroke="#000000" points="0,-143 0,-165 96,-165 96,-143 0,-143"/>
<text text-anchor="start" x="36.337" y="-152" font-family="Times,serif" font-weight="bold" font-size="10.00" fill="#000000">rating</text>
<polygon fill="none" stroke="#000000" points="0,-121 0,-143 96,-143 96,-121 0,-121"/>
<text text-anchor="start" x="5" y="-130" font-family="Times,serif" text-decoration="underline" font-size="10.00" fill="#000000">id</text>
<text text-anchor="start" x="12.779" y="-130" font-family="Times,serif" font-size="10.00" fill="#000000">: NUMBER</text>
<polygon fill="none" stroke="#000000" points="0,-99 0,-121 96,-121 96,-99 0,-99"/>
<text text-anchor="start" x="5" y="-107" font-family="Times,serif" font-size="10.00" fill="#000000">created_at: DATE</text>
<polygon fill="none" stroke="#000000" points="0,-77 0,-99 96,-99 96,-77 0,-77"/>
<text text-anchor="start" x="5" y="-85" font-family="Times,serif" font-size="10.00" fill="#000000">updated_at: DATE</text>
<polygon fill="none" stroke="#000000" points="0,-55 0,-77 96,-77 96,-55 0,-55"/>
<text text-anchor="start" x="5" y="-63" font-family="Times,serif" font-size="10.00" fill="#000000">rating: NUMBER</text>
<polygon fill="none" stroke="#000000" points="0,-33 0,-55 96,-55 96,-33 0,-33"/>
<text text-anchor="start" x="4.5355" y="-42" font-family="Times,serif" font-style="italic" text-decoration="underline" font-size="10.00" fill="#000000">productId</text>
<text text-anchor="start" x="43.4115" y="-42" font-family="Times,serif" font-size="10.00" fill="#000000">: NUMBER</text>
</g>
<!-- rating&#45;&gt;product -->
<g id="edge5" class="edge">
<title>rating&#45;&gt;product</title>
<path fill="none" stroke="#000000" stroke-width=".75" d="M102.2442,-99C143.953,-99 201.1339,-99 241.7966,-99"/>
<polygon fill="#000000" stroke="#000000" stroke-width=".75" points="102.2065,-99.0001 96.2066,-96.3 99.2065,-99 96.2065,-99 96.2065,-99 96.2065,-99 99.2065,-99 96.2065,-101.7 102.2065,-99.0001 102.2065,-99.0001"/>
</g>
</g>
</svg>
